<svg xmlns="http://www.w3.org/2000/svg" viewBox="440 215 410 270"><path d="M 457.663 243.680 C 457.302 254.031, 457.004 297.093, 457.003 339.372 C 457 410.880, 457.116 416.149, 458.660 414.872 C 459.573 414.118, 469.248 403.019, 480.160 390.208 L 500 366.916 500 316.504 L 500 266.091 503.615 265.412 C 509.510 264.307, 580.963 265.749, 585.500 267.066 C 604.432 272.559, 613.976 286.447, 613.976 308.500 C 613.976 327.508, 607.047 339.998, 592.927 346.442 C 584.774 350.162, 578.679 351, 559.780 351 C 548.575 351, 542.950 351.350, 543.177 352.032 C 543.367 352.600, 552.290 361.825, 563.007 372.532 C 578.009 387.521, 583.068 391.997, 584.996 391.985 C 592.608 391.940, 607.371 386.775, 617.127 380.743 C 623.187 376.995, 635.615 366.717, 637.336 364.029 C 638.227 362.638, 640.428 359.453, 642.228 356.951 C 648.655 348.016, 649.995 345.225, 653.725 333 C 656.040 325.412, 656.323 322.783, 656.368 308.500 C 656.407 295.980, 656.032 291.195, 654.642 286.500 C 653.666 283.200, 652.501 279.150, 652.054 277.500 C 650.849 273.049, 643.121 259.742, 638.120 253.509 C 628.994 242.132, 612.980 232.321, 596 227.704 C 588.892 225.771, 585.100 225.643, 523.411 225.262 L 458.321 224.860 457.663 243.680 M 520.917 361.413 C 518.396 363.263, 514.652 367.068, 512.597 369.868 C 509.044 374.707, 502 390.352, 502 393.403 C 502 394.845, 504.707 395.628, 517.854 397.986 C 521.348 398.613, 524.388 398.946, 524.608 398.726 C 525.004 398.330, 526.959 367.521, 526.986 361.250 C 526.994 359.462, 526.663 358.011, 526.250 358.025 C 525.837 358.038, 523.438 359.563, 520.917 361.413 M 535.990 359.750 C 535.973 361.063, 533.056 407.652, 531.500 431.462 C 529.612 460.361, 529.613 461, 531.520 461 C 532.357 461, 538.450 457.400, 545.061 453 C 551.672 448.600, 557.625 445.018, 558.291 445.040 C 558.956 445.062, 560.990 448.100, 562.812 451.790 C 567.320 460.924, 575.335 475.739, 576.232 476.597 C 576.634 476.982, 578.884 476.353, 581.232 475.199 C 583.579 474.045, 587.750 472.105, 590.500 470.889 C 593.250 469.672, 595.633 468.579, 595.796 468.459 C 595.958 468.340, 592.668 461.159, 588.485 452.501 C 584.301 443.843, 581.083 436.226, 581.333 435.574 C 581.617 434.834, 586.804 433.919, 595.115 433.140 C 602.444 432.454, 608.660 431.674, 608.926 431.407 C 609.491 430.843, 537.882 359, 536.755 359 C 536.340 359, 535.996 359.337, 535.990 359.750" fill="#ffffff" fill-rule="evenodd"/><path d="M 666.232 320.750 C 666.097 373.413, 666.265 426.965, 666.605 439.756 L 667.224 463.012 745.675 462.756 L 824.126 462.500 825.437 460 C 831.091 449.215, 831.171 449, 829.564 449 C 828.667 449, 828 448.147, 828 447 C 828 445.900, 827.351 445, 826.557 445 C 825.763 445, 824.523 444.212, 823.802 443.250 C 822.248 441.175, 816.473 437, 815.158 437 C 813.980 437, 806 429.056, 806 427.882 C 806 427.384, 784.433 427, 756.500 427 L 707 427 707 326 L 707 225 686.739 225 L 666.479 225 666.232 320.750 M 716 325.375 C 716 372.881, 716.281 413.156, 716.625 414.875 L 717.250 418 777 418 C 809.863 418, 838.156 417.719, 839.875 417.375 C 842.974 416.755, 843 416.698, 843 410.521 L 843 404.291 786.750 404.396 L 730.500 404.500 730.243 335.543 C 730.079 291.578, 729.626 266.226, 728.993 265.593 C 728.447 265.047, 728 263.985, 728 263.233 C 728 262.482, 726.875 260.392, 725.500 258.589 C 724.125 256.786, 723 254.629, 723 253.795 C 723 252.961, 721.875 250.621, 720.500 248.595 C 719.125 246.569, 718 243.581, 718 241.956 C 718 240.330, 717.550 239, 717 239 C 716.341 239, 716 268.458, 716 325.375 M 536.189 299.886 L 520.933 314.500 520.967 320.250 L 521 326 525.104 326 C 528.950 326, 529.856 325.371, 539.500 316 C 545.160 310.500, 550.342 306, 551.016 306 C 551.689 306, 557.082 310.500, 563 316 C 573.015 325.307, 574.046 326, 577.880 326 L 582 326 581.988 320.250 L 581.976 314.500 566.711 299.886 L 551.446 285.273 536.189 299.886 M 479.276 391.250 C 468.848 403.488, 459.571 414.118, 458.658 414.872 C 457.200 416.079, 457 419.068, 457 439.622 L 457 463 478.500 463 L 500 463 500 416 C 500 389.502, 499.615 369, 499.117 369 C 498.632 369, 489.703 379.012, 479.276 391.250" fill="#9438d8" fill-rule="evenodd"/><path d="M 717.300 234.883 C 717.809 243.237, 718.297 245.348, 720.451 248.523 C 721.853 250.589, 723 252.961, 723 253.795 C 723 254.629, 724.125 256.786, 725.500 258.589 C 726.875 260.392, 728 262.545, 728 263.374 C 728 264.203, 728.450 265.160, 729 265.500 C 729.654 265.904, 730 259.010, 730 245.559 L 730 225 723.349 225 L 716.698 225 717.300 234.883 M 541.740 324.343 L 532.979 332.500 532.990 338.750 C 532.996 342.751, 533.410 345, 534.139 345 C 534.765 345, 538.303 342.525, 542 339.500 C 545.697 336.475, 549.348 334.003, 550.111 334.007 C 550.875 334.011, 554.875 336.708, 559 340 C 563.125 343.292, 566.837 345.989, 567.250 345.993 C 567.663 345.997, 568 342.948, 568 339.219 L 568 332.437 562.250 326.949 C 559.087 323.931, 555.150 320.274, 553.500 318.824 L 550.500 316.186 541.740 324.343 M 806 427.882 C 806 429.056, 813.980 437, 815.158 437 C 816.473 437, 822.248 441.175, 823.802 443.250 C 824.523 444.212, 825.763 445, 826.557 445 C 827.351 445, 828 445.900, 828 447 C 828 450.429, 830.415 449.172, 832.346 444.739 C 833.361 442.407, 835.499 437.679, 837.096 434.231 C 838.693 430.783, 840 427.746, 840 427.481 C 840 427.216, 832.350 427, 823 427 C 813.650 427, 806 427.397, 806 427.882" fill="#e396ff" fill-rule="evenodd"/></svg>